HIERARCHY
ROOT joint_0
{
	OFFSET 0.000000 0.000000 0.000000
	CHANNELS 6 Xposition Yposition Zposition Zrotation Yrotation Xrotation 
	JOINT joint_1
	{
		OFFSET 8.185791 -2.713684 100.414917
		CHANNELS 3 Zrotation Yrotation Xrotation
		JOINT joint_2
		{
			OFFSET -4.376465 -1.111145 91.934082
			CHANNELS 3 Zrotation Yrotation Xrotation
			JOINT joint_3
			{
				OFFSET -6.985840 -1.054016 91.669922
				CHANNELS 3 Zrotation Yrotation Xrotation
				JOINT joint_4
				{
					OFFSET 0.150391 -4.451904 123.526001
					CHANNELS 3 Zrotation Yrotation Xrotation
					JOINT joint_5
					{
						OFFSET 19.754150 -8.123901 80.916992
						CHANNELS 3 Zrotation Yrotation Xrotation
						End Site
						{
							OFFSET 0.000000 0.000000 0.000000
						}
					}
				}
				JOINT joint_6
				{
					OFFSET -6.477539 -28.517334 68.237061
					CHANNELS 3 Zrotation Yrotation Xrotation
					JOINT joint_7
					{
						OFFSET -20.564453 -115.426208 -21.139038
						CHANNELS 3 Zrotation Yrotation Xrotation
						JOINT joint_8
						{
							OFFSET 18.981934 -19.826172 -267.898926
							CHANNELS 3 Zrotation Yrotation Xrotation
							JOINT joint_9
							{
								OFFSET 11.562744 -19.325867 -235.478027
								CHANNELS 3 Zrotation Yrotation Xrotation
								End Site
								{
									OFFSET 0.000000 0.000000 0.000000
								}
							}
						}
					}
				}
				JOINT joint_10
				{
					OFFSET 7.033936 23.504700 70.088989
					CHANNELS 3 Zrotation Yrotation Xrotation
					JOINT joint_11
					{
						OFFSET 36.629639 112.486816 -14.036987
						CHANNELS 3 Zrotation Yrotation Xrotation
						JOINT joint_12
						{
							OFFSET 41.355225 -7.048523 -266.019897
							CHANNELS 3 Zrotation Yrotation Xrotation
							JOINT joint_13
							{
								OFFSET 5.858887 29.785156 -234.603027
								CHANNELS 3 Zrotation Yrotation Xrotation
								End Site
								{
									OFFSET 0.000000 0.000000 0.000000
								}
							}
						}
					}
				}
			}
		}
	}
	JOINT joint_14
	{
		OFFSET -8.917725 -79.985535 -99.035034
		CHANNELS 3 Zrotation Yrotation Xrotation
		JOINT joint_15
		{
			OFFSET -32.739502 -31.478882 -502.570984
			CHANNELS 3 Zrotation Yrotation Xrotation
			JOINT joint_16
			{
				OFFSET 7.393066 -29.352966 -399.008011
				CHANNELS 3 Zrotation Yrotation Xrotation
				JOINT joint_17
				{
					OFFSET 178.013916 -26.060303 -71.875002
					CHANNELS 3 Zrotation Yrotation Xrotation
					End Site
					{
						OFFSET 0.000000 0.000000 0.000000
					}
				}
			}
		}
	}
	JOINT joint_18
	{
		OFFSET 1.900879 81.159851 -98.481018
		CHANNELS 3 Zrotation Yrotation Xrotation
		JOINT joint_19
		{
			OFFSET -15.120850 31.602051 -503.400024
			CHANNELS 3 Zrotation Yrotation Xrotation
			JOINT joint_20
			{
				OFFSET -16.653076 23.887695 -399.091988
				CHANNELS 3 Zrotation Yrotation Xrotation
				JOINT joint_21
				{
					OFFSET 179.618164 -1.217651 -72.592001
					CHANNELS 3 Zrotation Yrotation Xrotation
					End Site
					{
						OFFSET 0.000000 0.000000 0.000000
					}
				}
			}
		}
	}
}
MOTION
Frames: 7
Frame Time: 0.016667
-2752.785645 570.168640 1095.852051 2.591670 -2.713058 -0.434462 3.158299 3.130738 -1.349088 3.206956 -0.707650 0.408394 3.167427 0.652424 -0.343691 0.047811 0.938681 0.147484 0.000000 0.000000 0.000000 -3.717927 0.542992 1.307973 0.236609 -0.451949 2.836425 -0.016601 -0.235929 -0.763124 0.000000 0.000000 0.000000 1.987632 2.949458 -0.264637 -0.710460 1.392678 3.626055 -2.271565 -9.706687 -9.272207 0.000000 0.000000 0.000000 -1.274310 3.958870 -0.124638 -1.334013 2.639840 2.042860 -1.009318 -2.454848 -0.765943 0.000000 0.000000 0.000000 1.696330 2.942259 2.222278 1.751411 2.067768 -1.011321 1.482751 -1.436017 0.588208 0.000000 0.000000 0.000000 
-2752.866699 570.218811 1095.843018 2.585639 -2.732355 -0.442332 3.160171 3.115474 -1.374124 3.210414 -0.709262 0.414047 3.170168 0.652838 -0.347970 0.044317 0.941110 0.162626 0.000000 0.000000 0.000000 -3.734289 0.567704 1.330052 0.236874 -0.430704 2.860917 -0.016920 -0.236569 -0.770415 0.000000 0.000000 0.000000 1.980672 2.963920 -0.249675 -0.708444 1.405240 3.649234 -2.271818 -9.709927 -9.272133 0.000000 0.000000 0.000000 -1.271629 3.961763 -0.132273 -1.334977 2.668013 2.066150 -1.007917 -2.464824 -0.766839 0.000000 0.000000 0.000000 1.701992 2.946318 2.230806 1.758796 2.093307 -1.014607 1.488492 -1.437533 0.590510 0.000000 0.000000 0.000000 
-2752.941895 570.272156 1095.832031 2.579806 -2.751365 -0.449536 3.161295 3.100843 -1.398615 3.213121 -0.709136 0.420013 3.172076 0.652165 -0.352473 0.041495 0.947510 0.176414 0.000000 0.000000 0.000000 -3.748100 0.591107 1.352291 0.236802 -0.409351 2.880536 -0.017236 -0.236761 -0.776848 0.000000 0.000000 0.000000 1.976542 2.979281 -0.236049 -0.706471 1.417368 3.674148 -2.272460 -9.714451 -9.273083 0.000000 0.000000 0.000000 -1.268878 3.964470 -0.141005 -1.335996 2.696664 2.089580 -1.006557 -2.474510 -0.767708 0.000000 0.000000 0.000000 1.707746 2.950687 2.238568 1.766177 2.117892 -1.018218 1.494373 -1.437279 0.592881 0.000000 0.000000 0.000000 
-2753.021729 570.344360 1095.816040 2.574329 -2.775984 -0.455865 3.161886 3.098390 -1.417375 3.214779 -0.712466 0.423723 3.173303 0.654643 -0.355565 0.039421 0.955192 0.187581 0.000000 0.000000 0.000000 -3.763046 0.608181 1.375916 0.235956 -0.391646 2.886069 -0.017476 -0.234870 -0.778191 0.000000 0.000000 0.000000 1.973687 2.992938 -0.224286 -0.704644 1.427646 3.697228 -2.273069 -9.719274 -9.273821 0.000000 0.000000 0.000000 -1.266313 3.972566 -0.152070 -1.337125 2.726683 2.113197 -1.005081 -2.485923 -0.768783 0.000000 0.000000 0.000000 1.713558 2.961181 2.243431 1.773017 2.141622 -1.019422 1.499949 -1.435571 0.595138 0.000000 0.000000 0.000000 
-2753.099609 570.424622 1095.797974 2.569172 -2.802813 -0.460756 3.162036 3.100926 -1.435217 3.215895 -0.715241 0.426958 3.174142 0.657062 -0.356929 0.037945 0.966092 0.197415 0.000000 0.000000 0.000000 -3.778638 0.621715 1.400616 0.234446 -0.375419 2.881040 -0.017646 -0.231507 -0.775613 0.000000 0.000000 0.000000 1.971732 3.006530 -0.215208 -0.702605 1.436585 3.721305 -2.273768 -9.724269 -9.275231 0.000000 0.000000 0.000000 -1.263960 3.982898 -0.165243 -1.338511 2.757460 2.136688 -1.003775 -2.497766 -0.769989 0.000000 0.000000 0.000000 1.719354 2.974466 2.245970 1.779516 2.164556 -1.019837 1.505397 -1.431620 0.597359 0.000000 0.000000 0.000000 
-2753.176514 570.511902 1095.777954 2.564082 -2.830948 -0.466062 3.161917 3.107299 -1.449382 3.216452 -0.719117 0.428876 3.174624 0.662049 -0.357576 0.036930 0.976592 0.205233 0.000000 0.000000 0.000000 -3.791332 0.632733 1.424782 0.232840 -0.360708 2.872959 -0.017831 -0.227985 -0.773067 0.000000 0.000000 0.000000 1.970692 3.019568 -0.206602 -0.700808 1.444633 3.745645 -2.274834 -9.730928 -9.277485 0.000000 0.000000 0.000000 -1.261899 3.993665 -0.179471 -1.340499 2.790313 2.162239 -1.002989 -2.509194 -0.771343 0.000000 0.000000 0.000000 1.725375 2.988894 2.249525 1.786295 2.188018 -1.022138 1.511063 -1.426950 0.599673 0.000000 0.000000 0.000000 
-2753.253418 570.601196 1095.756958 2.558682 -2.861500 -0.471837 3.162470 3.118410 -1.460993 3.217507 -0.721178 0.429909 3.175657 0.664854 -0.357638 0.036369 0.984789 0.210432 0.000000 0.000000 0.000000 -3.799932 0.643553 1.446914 0.231399 -0.346142 2.866557 -0.018004 -0.225778 -0.772531 0.000000 0.000000 0.000000 1.965628 3.032945 -0.196334 -0.699485 1.453910 3.770424 -2.276415 -9.740631 -9.281103 0.000000 0.000000 0.000000 -1.259899 4.005117 -0.195311 -1.343089 2.826798 2.191555 -1.002667 -2.519841 -0.772769 0.000000 0.000000 0.000000 1.731868 3.005018 2.255419 1.793771 2.213517 -1.028168 1.517160 -1.422400 0.602160 0.000000 0.000000 0.000000 
